<svg height="512pt" viewBox="-52 0 512 512" width="512pt" xmlns="http://www.w3.org/2000/svg"><path d="m204.234375 0-20.027344 184.070312 20.027344 327.929688s204.230469-130.789062 204.230469-307.765625c.003906-112.617187-91.617188-204.234375-204.230469-204.234375zm0 0" fill="#ff4a4a"/><path d="m0 204.234375c0 176.953125 204.179688 307.730469 204.234375 307.765625v-512c-112.617187 0-204.234375 91.617188-204.234375 204.234375zm0 0" fill="#ff9f22"/><path d="m204.234375 64.105469-20.023437 119.964843 20.023437 119.960938c66.148437 0 119.960937-53.8125 119.960937-119.960938 0-66.148437-53.816406-119.964843-119.960937-119.964843zm0 0" fill="#efe2dd"/><path d="m84.269531 184.066406c0 66.148438 53.816407 119.964844 119.964844 119.964844v-239.925781c-66.148437 0-119.964844 53.816406-119.964844 119.960937zm0 0" fill="#fff5f5"/><path d="m273.675781 161.304688-15.007812-25.992188-39.429688 22.765625v-45.527344h-30.011719v45.527344l-39.429687-22.765625-15.003906 25.992188 39.429687 22.765624-39.429687 22.761719 15.003906 25.992188 39.429687-22.761719v45.527344h30.011719v-45.527344l39.429688 22.761719 15.007812-25.992188-39.429687-22.761719zm0 0" fill="#2fc0f0"/></svg>